HIERARCHY
ROOT Hips
{
	OFFSET 0.00000 0.00000 0.00000
	CHANNELS 6 Xposition Yposition Zposition Zrotation Yrotation Xrotation 
	JOINT LHipJoint
	{
		OFFSET 0 0 0
		CHANNELS 3 Zrotation Yrotation Xrotation
		JOINT LeftHip
		{
			OFFSET 1.36337 -1.57426 1.11036
			CHANNELS 3 Zrotation Yrotation Xrotation
			JOINT LeftKnee
			{
				OFFSET 2.38468 -6.55187 0.00000
				CHANNELS 3 Zrotation Yrotation Xrotation
				JOINT LeftAnkle
				{
					OFFSET 2.37166 -6.51609 0.00000
					CHANNELS 3 Zrotation Yrotation Xrotation
					JOINT LeftToe
					{
						OFFSET 0.29078 -0.79891 2.01393
						CHANNELS 3 Zrotation Yrotation Xrotation
						End Site
						{
							OFFSET 0.00000 -0.00000 1.07924
						}
					}
				}
			}
		}
	}
	JOINT RHipJoint
	{
		OFFSET 0 0 0
		CHANNELS 3 Zrotation Yrotation Xrotation
		JOINT RightHip
		{
			OFFSET -1.36349 -1.57426 1.11036
			CHANNELS 3 Zrotation Yrotation Xrotation
			JOINT RightKnee
			{
				OFFSET -2.29562 -6.30717 0.00000
				CHANNELS 3 Zrotation Yrotation Xrotation
				JOINT RightAnkle
				{
					OFFSET -2.40985 -6.62100 0.00000
					CHANNELS 3 Zrotation Yrotation Xrotation
					JOINT RightToe
					{
						OFFSET -0.23197 -0.63733 1.92232
						CHANNELS 3 Zrotation Yrotation Xrotation
						End Site
						{
							OFFSET -0.00000 -0.00000 1.01562
						}
					}
				}
			}
		}
	}
	JOINT lowerback
	{
		OFFSET 0 0 0
		CHANNELS 3 Zrotation Yrotation Xrotation
		JOINT Chest
		{
			OFFSET -0.08565 2.03602 -0.24562
			CHANNELS 3 Zrotation Yrotation Xrotation
			JOINT Chest2
			{
				OFFSET -0.00036 2.05693 0.00216
				CHANNELS 3 Zrotation Yrotation Xrotation
				JOINT lowerneck
				{
					OFFSET 0 0 0
					CHANNELS 3 Zrotation Yrotation Xrotation
					JOINT Neck
					{
						OFFSET -0.03664 1.69515 0.31789
						CHANNELS 3 Zrotation Yrotation Xrotation
						JOINT Head
						{
							OFFSET 0.00932 1.70181 -0.46013
							CHANNELS 3 Zrotation Yrotation Xrotation
							End Site
							{
								OFFSET 0.01243 1.77620 -0.19377
							}
						}
					}
				}
				JOINT LeftCollar
				{
					OFFSET 0 0 0
					CHANNELS 3 Zrotation Yrotation Xrotation
					JOINT LeftShoulder
					{
						OFFSET 3.74344 0.81315 -0.36647
CHANNELS 3 Zrotation Xrotation Yrotation
						JOINT LeftElbow
						{
OFFSET 0 -4.971850 -0.000000
CHANNELS 3 Zrotation Xrotation Yrotation
							JOINT LeftWrist
							{
OFFSET 0 -3.358110 0.000000
CHANNELS 3 Zrotation Xrotation Yrotation
								JOINT lhand
								{
									OFFSET 0 0 0
CHANNELS 3 Zrotation Xrotation Yrotation
									JOINT LFingers
									{
OFFSET 0 -0.622780 0.000000
CHANNELS 3 Zrotation Xrotation Yrotation
										End Site
										{
OFFSET 0 -0.502100 0.000000
										}
									}
								}
								JOINT LThumb
								{
OFFSET 0 0.000000 0.000000
CHANNELS 3 Zrotation Xrotation Yrotation
									End Site
									{
OFFSET 0 -0.509760 0.509760
									}
								}
							}
						}
					}
				}
				JOINT RightCollar
				{
					OFFSET 0 0 0
					CHANNELS 3 Zrotation Yrotation Xrotation
					JOINT RightShoulder
					{
						OFFSET -3.75385 0.50666 -0.06525
CHANNELS 3 Zrotation Xrotation Yrotation
						JOINT RightElbow
						{
OFFSET 0 -4.964930 -0.000000
CHANNELS 3 Zrotation Xrotation Yrotation
							JOINT RightWrist
							{
OFFSET 0 -3.349290 0.000000
CHANNELS 3 Zrotation Xrotation Yrotation
								JOINT rhand
								{
									OFFSET 0 0 0
CHANNELS 3 Zrotation Xrotation Yrotation
									JOINT RFingers
									{
OFFSET 0 -0.638040 0.000000
CHANNELS 3 Zrotation Xrotation Yrotation
										End Site
										{
OFFSET 0 -0.514410 0.000000
										}
									}
								}
								JOINT RThumb
								{
OFFSET 0 0.000000 0.000000
CHANNELS 3 Zrotation Xrotation Yrotation
									End Site
									{
OFFSET 0 -0.522260 0.522260
									}
								}
							}
						}
					}
				}
			}
		}
	}
}
MOTION
Frames: 11
Frame Time: 0.008333333333333333
31.904346 14.416152 7.320907 681.940756 75.677148 339.205344 0.000000 0.000000 0.000000 -9.255988 -1.999821 -62.192354 16.120454 19.635069 78.590302 3.863341 4.401153 -38.863153 0.136911 2.380216 6.557939 0.000000 0.000000 0.000000 0.466974 1.659979 -38.230419 -6.175888 -14.596640 45.683429 -0.934126 -3.212392 -19.686924 -2.301284 9.466600 -27.266544 -7.632456 2.903474 29.375534 -3.153000 1.785173 7.433210 0.192551 1.175724 -7.848461 0.256514 7.066100 -30.093827 -3.528827 10.014770 2.668996 0.078029 4.758185 5.513279 0.000000 0.000000 0.000000 -2.940481 -38.883173 -129.946796 33.608719 -43.792731 13.841554 1.567407 -5.865797 7.325374 0.000000 0.000000 0.000000 -7.125000 0.000000 0.000000 -18.240634 22.716056 -10.300725 0.000000 0.000000 0.000000 -4.445905 -10.964299 44.834677 -13.577073 -22.126666 -2.666914 7.602363 -55.704547 36.719380 0.000000 0.000000 0.000000 7.125000 0.000000 0.000000 47.631617 60.083161 -20.187327
32.046970 14.571399 7.281394 679.932401 76.789703 337.335836 0.000000 0.000000 0.000000 -9.911208 -3.594006 -60.232736 15.407133 19.485997 76.459814 3.964965 4.960523 -39.569196 0.173461 2.682619 7.396391 0.000000 0.000000 0.000000 1.659944 1.463778 -39.867208 -6.304679 -14.717119 46.192371 -0.965047 -2.826491 -19.779895 -2.168517 9.208605 -26.449997 -8.051477 2.574437 29.700462 -2.647886 1.182073 6.875373 1.190407 0.914061 -8.621980 1.134624 7.152980 -29.572998 -4.323920 9.886505 2.452759 -0.342160 4.645349 5.459857 0.000000 0.000000 0.000000 -2.331959 -37.565178 -128.144670 33.592040 -43.780116 13.830028 3.422411 -11.578970 6.133890 0.000000 0.000000 0.000000 -7.125000 0.000000 0.000000 -17.079739 23.845496 -9.112875 0.000000 0.000000 0.000000 -5.636137 -9.922344 48.013673 -15.013591 -24.163556 -3.232414 7.046331 -57.192587 36.376920 0.000000 0.000000 0.000000 7.125000 0.000000 0.000000 46.799558 59.949716 -19.660575
32.203409 14.730208 7.242416 678.395302 77.804042 335.767993 0.000000 0.000000 0.000000 -10.812412 -4.609843 -58.038366 14.642363 19.297243 74.156833 4.024621 5.244277 -39.963888 0.184677 2.767840 7.632915 0.000000 0.000000 0.000000 3.188785 1.391741 -41.807286 -6.570235 -14.958992 47.229503 -1.048750 -2.322909 -20.312917 -1.992836 8.851027 -25.330523 -7.540836 2.166977 29.648107 -2.398673 0.864490 6.988824 1.300749 0.754977 -8.445711 1.199529 7.035175 -30.195089 -4.748590 9.768950 2.802315 -0.480984 4.531124 5.685033 0.000000 0.000000 0.000000 -1.563521 -37.225621 -126.349529 33.735001 -43.887425 13.929006 4.947596 -16.633470 4.211004 0.000000 0.000000 0.000000 -7.125000 0.000000 0.000000 -16.222804 25.691195 -7.888626 0.000000 0.000000 0.000000 -6.674519 -9.635724 50.200717 -16.837840 -26.642727 -4.014726 5.984624 -58.139763 34.664775 0.000000 0.000000 0.000000 7.125000 0.000000 0.000000 43.797881 58.978623 -16.966718
32.382126 14.898727 7.197722 677.777184 79.195696 335.060613 0.000000 0.000000 0.000000 -12.328202 -5.229022 -55.809516 13.855174 19.068966 71.761269 3.976044 5.292147 -39.757114 0.220736 3.022218 8.340699 0.000000 0.000000 0.000000 5.045788 0.855549 -44.577551 -7.079247 -15.397502 49.172125 -1.079181 -1.827228 -20.363749 -1.941422 8.742805 -24.994138 -6.457908 1.530625 29.496571 -2.370515 0.428495 7.216252 0.877099 0.530928 -8.087880 2.631843 7.562359 -30.447562 -6.903286 10.231523 3.819427 -1.291595 4.527337 6.293071 0.000000 0.000000 0.000000 -0.510156 -36.747088 -124.129263 33.951543 -44.048605 14.079459 6.395055 -24.972651 1.080482 0.000000 0.000000 0.000000 -7.125000 0.000000 0.000000 -15.579530 28.729715 -6.389716 0.000000 0.000000 0.000000 -7.868677 -9.084374 52.582616 -19.541184 -30.079136 -5.302588 3.738065 -60.296796 37.415007 0.000000 0.000000 0.000000 7.125000 0.000000 0.000000 44.954978 61.537140 -20.321117
32.520890 15.031816 7.175742 680.896177 80.456269 338.348711 0.000000 0.000000 0.000000 -14.234593 -4.833465 -54.429926 13.095557 18.815871 69.421501 3.928627 3.808852 -38.944681 0.364362 3.877523 10.732236 0.000000 0.000000 0.000000 6.674540 2.020307 -48.696809 -7.819680 -15.984298 51.909375 -1.154139 -1.041828 -20.704602 -1.735192 8.290285 -23.599907 -6.624704 1.249688 30.154291 -1.569664 0.016542 6.949458 2.012999 0.356274 -8.680844 3.390518 8.909447 -31.422640 -9.882497 12.318338 6.628380 -1.975773 5.076146 7.774412 0.000000 0.000000 0.000000 0.002547 -35.583003 -120.063350 34.840749 -44.697462 14.701454 7.847800 -31.437893 -0.819997 0.000000 0.000000 0.000000 -7.125000 0.000000 0.000000 -14.751148 30.607772 -5.347280 0.000000 0.000000 0.000000 -10.190561 -8.309508 54.838050 -22.958227 -34.038226 -7.117011 2.325622 -62.515430 39.573235 0.000000 0.000000 0.000000 7.125000 0.000000 0.000000 46.507089 63.442754 -23.258047
32.676747 15.127022 7.160827 688.491740 82.212848 345.908170 0.000000 0.000000 0.000000 -17.088921 -3.708628 -53.261693 12.465955 18.580654 67.458064 3.682515 2.333375 -37.207334 0.328029 3.680681 10.180023 0.000000 0.000000 0.000000 7.359473 3.943996 -52.017718 -8.423145 -16.421724 54.072773 -1.269554 0.356404 -21.197550 -1.658231 8.114770 -23.063098 -5.918134 0.770427 30.647164 -1.250014 -0.380605 6.848383 2.111654 0.173583 -9.013188 4.254552 10.011832 -30.506303 -13.441870 14.393326 9.074903 -2.904245 5.581475 9.056290 0.000000 0.000000 0.000000 0.949969 -34.681324 -116.733994 36.751443 -46.022187 16.061271 13.212534 -33.331688 -2.902700 0.000000 0.000000 0.000000 -7.125000 0.000000 0.000000 -10.830110 32.825698 -3.285517 0.000000 0.000000 0.000000 -11.321364 -7.603651 55.766670 -26.289448 -37.490369 -9.064349 4.383682 -65.613865 39.742233 0.000000 0.000000 0.000000 7.125000 0.000000 0.000000 48.649680 63.000391 -24.099776
32.830080 15.175873 7.157335 709.483224 84.226256 367.089224 0.000000 0.000000 0.000000 -21.378860 -1.597537 -53.159223 12.086660 18.427020 66.263301 3.328714 -0.334230 -34.532250 0.301031 3.497776 9.670842 0.000000 0.000000 0.000000 5.364375 7.175383 -54.870202 -8.872457 -16.724655 55.647503 -1.323648 2.723872 -21.029348 -1.646597 8.087499 -22.980208 -5.220823 0.242066 30.863241 -1.072912 -0.785828 7.049201 2.059397 -0.018828 -8.869226 5.043967 11.009811 -29.929529 -17.777430 16.905823 11.531102 -4.004052 6.164353 10.703229 0.000000 0.000000 0.000000 1.648649 -34.716640 -113.443840 38.864525 -47.381266 17.599442 16.768569 -33.335170 -5.483554 0.000000 0.000000 0.000000 -7.125000 0.000000 0.000000 -8.283323 35.604239 -1.930574 0.000000 0.000000 0.000000 -12.449413 -8.277111 57.099396 -29.539153 -40.490503 -11.110905 3.302461 -66.357854 40.455986 0.000000 0.000000 0.000000 7.125000 0.000000 0.000000 48.702215 63.777339 -25.001213
32.985953 15.188353 7.186946 752.732838 85.820145 410.377938 0.000000 0.000000 0.000000 -25.638575 1.676271 -54.350429 12.482789 18.586466 67.510112 2.433542 -4.603219 -28.460158 0.156427 2.544297 7.012677 0.000000 0.000000 0.000000 1.449913 10.024435 -55.970279 -9.289441 -16.990185 57.085477 -1.236767 2.601148 -20.331179 -1.256904 7.091417 -19.992832 -3.605215 -0.672621 31.207623 -0.981852 -1.378217 7.362117 1.447502 -0.304359 -8.684299 4.762766 11.260353 -29.701626 -20.773602 18.948775 14.397781 -4.616980 6.545789 12.448102 0.000000 0.000000 0.000000 2.824844 -35.905257 -112.191052 40.698595 -48.477136 18.960981 18.172579 -31.642459 -7.548223 0.000000 0.000000 0.000000 -7.125000 0.000000 0.000000 -7.389956 37.825392 -1.314530 0.000000 0.000000 0.000000 -13.004168 -8.969813 57.988477 -32.111049 -42.634526 -12.816309 3.755445 -67.956352 40.314999 0.000000 0.000000 0.000000 7.125000 0.000000 0.000000 48.902312 63.559070 -24.882263
33.142553 15.124997 7.265891 805.331593 84.348411 463.078826 0.000000 0.000000 0.000000 -28.202121 5.346302 -58.153124 14.236181 19.180386 72.921461 0.864510 -10.261960 -16.975793 0.005684 0.101487 0.279145 0.000000 0.000000 0.000000 -3.407055 11.637151 -55.011932 -9.915949 -17.361760 59.206236 -1.147214 -1.992259 -21.048304 -0.597021 4.914496 -13.671541 -1.292730 -1.766011 31.232307 -1.108122 -1.963203 7.829133 0.176945 -0.583514 -8.234031 3.979429 10.841738 -30.205215 -22.761228 20.052313 16.474872 -5.033688 6.594032 13.830051 0.000000 0.000000 0.000000 4.115818 -37.207776 -111.055462 43.261635 -49.886394 20.901079 17.935511 -32.017204 -8.987003 0.000000 0.000000 0.000000 -7.125000 0.000000 0.000000 -7.811430 39.302482 -1.102472 0.000000 0.000000 0.000000 -13.139443 -9.419201 57.827375 -34.305621 -44.308318 -14.326674 2.423135 -68.737814 40.546403 0.000000 0.000000 0.000000 7.125000 0.000000 0.000000 48.029852 64.084555 -24.904674
33.302935 14.935526 7.326824 829.723402 82.021393 487.460245 0.000000 0.000000 0.000000 -26.327543 7.974570 -62.487910 16.393492 19.682916 79.400743 -0.513912 -16.129959 -4.919003 0.928734 -5.804585 -16.319454 0.000000 0.000000 0.000000 -5.447952 9.953534 -55.437397 -11.001207 -17.933766 62.783054 -1.329931 -3.018937 -23.054043 -0.489293 4.484540 -12.444090 1.947353 -2.826551 30.753561 -1.193084 -2.258046 8.263731 -1.697866 -0.723856 -7.648354 3.438332 10.301630 -30.162377 -23.636269 20.390746 17.923515 -5.275667 6.525404 14.617058 0.000000 0.000000 0.000000 4.817079 -38.081289 -111.398818 44.784364 -50.662111 22.071893 18.933119 -33.061326 -7.369355 0.000000 0.000000 0.000000 -7.125000 0.000000 0.000000 -6.726699 37.685366 -1.208764 0.000000 0.000000 0.000000 -13.519239 -9.093149 56.927793 -36.080738 -45.565871 -15.581021 2.258725 -71.791782 40.748773 0.000000 0.000000 0.000000 7.125000 0.000000 0.000000 48.173799 64.268692 -25.194085
33.469189 14.713511 7.333011 834.698189 79.609949 491.970394 0.000000 0.000000 0.000000 -23.432761 9.975051 -64.170980 16.964015 19.777531 81.091690 -0.688932 -17.456652 -3.961682 1.638601 -8.068901 -22.923504 0.000000 0.000000 0.000000 -7.290612 7.045867 -56.365037 -12.271262 -18.502911 66.845899 -1.579339 -2.069094 -24.568101 -0.679064 5.268843 -14.676896 3.198116 -3.425500 31.066817 -1.642208 -2.559711 8.915992 -2.821894 -0.809362 -7.138113 3.070220 10.069817 -30.649245 -23.606686 20.389820 18.322240 -5.214050 6.448935 14.845866 0.000000 0.000000 0.000000 4.333268 -38.540225 -111.417401 46.046391 -51.270926 23.052256 21.387859 -29.784073 -5.856838 0.000000 0.000000 0.000000 -7.125000 0.000000 0.000000 -4.480936 36.235482 -0.967980 0.000000 0.000000 0.000000 -14.957308 -8.904769 56.464525 -39.096285 -47.525146 -17.769828 0.683990 -73.947909 39.179431 0.000000 0.000000 0.000000 7.125000 0.000000 0.000000 44.412837 63.608787 -22.165309
